<svg t="1691499303495" class="icon" viewBox="0 0 1024 1024" version="1.1" xmlns="http://www.w3.org/2000/svg" p-id="7703" width="200" height="200"><path d="M751.177143 666.087619a290.133333 290.133333 0 1 0-512 3.900952z" fill="#FFD8AE" p-id="7704"></path><path d="M223.817143 694.613333L216.990476 682.666667a314.514286 314.514286 0 1 1 555.885714-4.388572l-6.826666 12.921905z m527.36-28.525714zM493.714286 266.48381a265.99619 265.99619 0 0 0-240.396191 379.123809l482.742857-3.657143a262.582857 262.582857 0 0 0 24.380953-109.714286 265.99619 265.99619 0 0 0-266.727619-265.75238zM512 195.047619a24.380952 24.380952 0 0 1-24.380952-24.380952V73.142857a24.380952 24.380952 0 0 1 48.761904 0v97.52381a24.380952 24.380952 0 0 1-24.380952 24.380952z" fill="#FF8F00" p-id="7705"></path><path d="M975.238095 560.761905h-97.523809a24.380952 24.380952 0 0 1 0-48.761905h97.523809a24.380952 24.380952 0 0 1 0 48.761905z" fill="#FF8F00" p-id="7706"></path><path d="M146.285714 536.380952H48.761905" fill="#FFD8AE" p-id="7707"></path><path d="M146.285714 560.761905H48.761905a24.380952 24.380952 0 0 1 0-48.761905h97.523809a24.380952 24.380952 0 0 1 0 48.761905z" fill="#FF8F00" p-id="7708"></path><path d="M839.68 208.700952l-68.998095 68.998096" fill="#FFD8AE" p-id="7709"></path><path d="M770.681905 302.08a24.380952 24.380952 0 0 1-17.310476-41.691429l68.998095-68.998095a24.380952 24.380952 0 0 1 34.377143 34.377143l-68.998096 69.241905a24.380952 24.380952 0 0 1-17.066666 7.070476z" fill="#FF8F00" p-id="7710"></path><path d="M253.318095 277.699048L184.32 208.700952" fill="#FFD8AE" p-id="7711"></path><path d="M253.318095 302.08a24.380952 24.380952 0 0 1-17.310476-7.070476L167.253333 226.011429a24.380952 24.380952 0 0 1 34.377143-34.377143l68.998095 68.998095a24.380952 24.380952 0 0 1-17.310476 41.691429z" fill="#FF8F00" p-id="7712"></path><path d="M585.142857 804.571429H73.142857a24.380952 24.380952 0 0 1 0-48.761905h512a24.380952 24.380952 0 0 1 0 48.761905zM926.47619 902.095238H341.333333a24.380952 24.380952 0 0 1 0-48.761905h585.142857a24.380952 24.380952 0 0 1 0 48.761905zM755.809524 999.619048H195.047619a24.380952 24.380952 0 0 1 0-48.761905h560.761905a24.380952 24.380952 0 0 1 0 48.761905z" fill="#3B82FF" p-id="7713"></path></svg>