<svg t="1689857932907" class="icon" viewBox="0 0 1024 1024" version="1.1" xmlns="http://www.w3.org/2000/svg" p-id="5794"
  width="16" height="16">
  <path
    d="M736 768h-448a32 32 0 0 1 0-64h448a32 32 0 0 1 0 64z m-44.8-415.552l-147.669333-147.669333a61.994667 61.994667 0 0 1-62.848 0l-147.669334 147.669333a32.554667 32.554667 0 0 1-46.037333-46.037333l161.578667-161.578667a63.68 63.68 0 0 1 127.104 0l161.578666 161.578667a32.554667 32.554667 0 0 1-46.037333 46.037333zM565.333333 512a32 32 0 0 1 0 64h-277.333333a32 32 0 0 1 0-64h277.333333z"
    fill="#EB9E52" p-id="5795"></path>
  <path
    d="M853.333333 981.333333H170.666667a85.333333 85.333333 0 0 1-85.333334-85.333333V384a85.333333 85.333333 0 0 1 85.333334-85.333333h682.666666a85.333333 85.333333 0 0 1 85.333334 85.333333v512a85.333333 85.333333 0 0 1-85.333334 85.333333z m21.333334-576a42.666667 42.666667 0 0 0-42.666667-42.666666H192a42.666667 42.666667 0 0 0-42.666667 42.666666v469.333334a42.666667 42.666667 0 0 0 42.666667 42.666666h640a42.666667 42.666667 0 0 0 42.666667-42.666666V405.333333z"
    fill="#5C8EF3" p-id="5796"></path>
</svg>