<svg t="1689855847210" class="icon" viewBox="0 0 1024 1024" version="1.1" xmlns="http://www.w3.org/2000/svg" p-id="2362"
  width="16" height="16">
  <path
    d="M483.582 283.236l193.979-38.208c18.399 37.772 57.346 64.281 101.595 64.281C840.707 309.31 892 258.016 892 196.464c0-61.553-51.293-112.845-112.845-112.845-54.774 0-101.423 40.62-111.032 92.942l-197.561 38.914c-21.804-45.642-68.235-76.762-122.698-76.762-75.762 0-135.983 60.222-135.983 135.984s60.222 135.984 135.983 135.984c20.546 0 39.945-4.437 57.314-12.404l144.445 144.446c-27.55 29.495-44.404 69.114-44.404 112.73 0 4.807 0.217 9.563 0.618 14.265l-200.597 64.9C285.002 708.808 253.605 692 218.844 692 158.929 692 109 741.93 109 801.845S158.929 911.69 218.844 911.69c59.917 0 109.846-49.93 109.846-109.845 0-0.763-0.014-1.523-0.029-2.283l197.313-63.837c28.18 50.642 82.219 84.854 144.37 84.854 91.303 0 165.124-73.82 165.124-165.125 0-91.303-73.821-165.124-165.124-165.124-22.351 0-43.648 4.434-63.077 12.454l-148.64-148.64c14.374-20.123 23.356-44.427 24.955-70.908z m-264.738 562.91c-24.806 0-44.3-19.492-44.3-44.3s19.494-44.3 44.3-44.3c24.811 0 44.302 19.492 44.302 44.3s-19.492 44.3-44.302 44.3z m560.311-696.155c26.024 0 46.474 20.448 46.474 46.474s-20.449 46.473-46.474 46.473c-26.026 0-46.476-20.448-46.476-46.473s20.45-46.474 46.476-46.474zM278.372 274.698c0-38.22 31.273-69.492 69.492-69.492 38.221 0 69.492 31.272 69.492 69.492s-31.271 69.492-69.492 69.492c-38.218 0-69.492-31.272-69.492-69.492z m485.65 380.757c0 51.098-42.581 93.68-93.68 93.68s-93.681-42.582-93.681-93.68c0-51.097 42.582-93.68 93.681-93.68s93.68 42.582 93.68 93.68z"
    p-id="2363"></path>
</svg>