<svg t="1691498188603" class="icon" viewBox="0 0 1024 1024" version="1.1" xmlns="http://www.w3.org/2000/svg" p-id="5175" width="200" height="200"><path d="M709.3 624.7c12.9-27.8 20.2-58.8 20.2-91.5 0-120.1-97.4-217.5-217.5-217.5s-217.5 97.4-217.5 217.5c0 32.7 7.3 63.7 20.2 91.5h394.6z" fill="#FFD991" p-id="5176"></path><path d="M503 225.3h18v50.6h-18z m-182.59 4.474l15.587-9 49.95 86.514-15.588 9z m-88.68 162.512l9-15.588 43.82 25.3-9 15.588zM131.1 534.7h113.2v18H131.1z m507.01-227.388l49.94-86.523 15.59 8.998-49.94 86.523z m101.313 94.761l43.825-25.295 8.998 15.59-43.824 25.295zM779.7 534.7h113.2v18H779.7z" fill="#384D68" p-id="5177"></path><path d="M722.9 615.7c10.3-26.3 15.6-54 15.6-82.5 0-124.9-101.6-226.5-226.5-226.5S285.5 408.3 285.5 533.2c0 28.5 5.3 56.2 15.6 82.5H101v18h822v-18H722.9z m-19.4 0h-383c-11.3-26.1-17-53.9-17-82.5 0-115 93.5-208.5 208.5-208.5s208.5 93.5 208.5 208.5c0 28.6-5.7 56.4-17 82.5z m-452.3 56.5h349.1v18H251.2z m368.8 0h91.1v18H620z m106.9 0h45.9v18h-45.9z m-385.7 56.5h39.9v18h-39.9z m69.2 0h272.4v18H410.4z m20.8 56.5h161.6v18H431.2z" fill="#384D68" p-id="5178"></path></svg>